<?xml version="1.0" encoding="utf-8"?>
<!-- Generator: Adobe Illustrator 27.5.0, SVG Export Plug-In . SVG Version: 6.00 Build 0)  -->
<svg version="1.1" xmlns="http://www.w3.org/2000/svg" xmlns:xlink="http://www.w3.org/1999/xlink" x="0px" y="0px"
	 viewBox="0 0 500 500" style="enable-background:new 0 0 500 500;" xml:space="preserve">
<g id="BACKGROUND">
	<rect style="fill:#F7F1F0;" width="500" height="500"/>
</g>
<g id="OBJECTS">
	<path style="fill:#1E000E;" d="M250,169.072v-0.031c0-0.016-0.003-0.032-0.003-0.049C250,169.019,249.997,169.045,250,169.072z"/>
	<g>
		<path style="fill:none;" d="M286.845,196.005c-2.565-2.415-7.105-4.469-6.418-0.481c0.543,0.666,1.273,1.634,0.428,2.388
			c-0.791,0.72-1.79,1.48-1.044,2.568c2.037,1.41,4.33,0.275,6.553-0.859C285.827,198.45,286.069,196.96,286.845,196.005z"/>
		<path style="fill:none;" d="M291.854,195.322c3.084-2.65,4.469-9.512-1.125-5.441c-0.235,0.066-0.329-0.265-0.498-0.406
			c-0.004,0.031-0.014,0.109-0.013,0.139l-0.001-0.034l-0.004,0.034c0.005-0.03,0.003-0.109,0.002-0.141l0.006,0.035l0.009-0.033
			c-0.759-1.043-2.098-2.252-2.993-0.974c-1.114,1.911,0.039,4.199,1.146,6.367C289.513,194.378,290.921,194.606,291.854,195.322z"
			/>
		<path style="fill:none;" d="M66.829,237.802c-1.05-0.423-0.69-1.582-0.404-2.392c-0.701-3.986-4.28-0.517-5.878,2.622
			c1.053,0.637,1.784,1.957,1.674,3.24c2.475,0.315,5.018,0.609,6.458-1.407C69.014,238.59,67.817,238.212,66.829,237.802z"/>
		<path style="fill:none;" d="M213.636,199.62c2.33,2.012,9.72,2.18,5.509-1.708c-1.312-1.201,1.04-2.194,0.535-3.464
			c-0.943-2.678-4.043-0.421-6.524,1.557C213.931,196.96,214.173,198.45,213.636,199.62z"/>
		<path style="fill:none;" d="M211.615,194.868c2.216-2.626,2.178-10.045-1.847-5.394l0.009,0.033l0.006-0.035
			c-0.001,0.031-0.003,0.111,0.002,0.141l-0.004-0.034l-0.001,0.034c0.002-0.031-0.008-0.108-0.012-0.139
			c-1.055,1.337-2.711-2.251-4.088-0.495c-0.931,2.371,0.813,4.389,2.465,6.342C209.079,194.606,210.486,194.378,211.615,194.868z"
			/>
		<path style="fill:none;" d="M134.156,211.064c1.85-2.896,0.832-10.245-2.543-5.103l0.014,0.031l0.001-0.035
			c0.003,0.031,0.012,0.11,0.02,0.139l-0.009-0.033l0.004,0.034c-0.003-0.031-0.022-0.106-0.031-0.136
			c-0.869,1.464-2.985-1.873-4.118,0.049c-0.609,2.473,1.386,4.243,3.282,5.961C131.607,211.139,132.972,210.726,134.156,211.064z"
			/>
		<path style="fill:none;" d="M292.682,200.291c2.491,1.989,5.633,4.304,6.583,1.604c0.284-0.715-0.239-1.298-0.666-1.826
			c-1.144-1.492,1.457-1.966,1.268-3.334c-0.31-2.869-3.946-1.295-6.84,0.074C293.557,197.917,293.372,199.337,292.682,200.291z"/>
		<path style="fill:none;" d="M129.811,213.601c-3.05-0.975-6.861-2.055-6.79,0.83c-0.011,0.77,0.685,1.128,1.273,1.469
			c1.601,0.985-0.656,2.356,0.005,3.566c1.299,2.551,4.107-0.159,6.314-2.46C129.803,216.152,129.432,214.769,129.811,213.601z"/>
		<path style="fill:none;" d="M142.022,213.086c-1.459-1.017,0.741-2.312,0.072-3.504c-1.288-2.53-4.063,0.116-6.261,2.405
			c0.895,0.844,1.332,2.289,0.954,3.52C139.362,217.193,146.709,216.383,142.022,213.086z"/>
		<path style="fill:none;" d="M135.768,217.216c-0.878,0.864-2.341,1.241-3.548,0.815c-1.843,2.897-0.79,10.181,2.559,5.057
			l-0.014-0.031l-0.001,0.035c-0.003-0.031-0.012-0.11-0.021-0.139l0.009,0.033l-0.004-0.034c0.003,0.031,0.022,0.106,0.031,0.136
			c0.148-0.163,0.198-0.503,0.44-0.469C141.15,225.879,139.153,219.475,135.768,217.216z"/>
		<path style="fill:none;" d="M212.4,201.18c-0.984,0.74-2.484,0.921-3.624,0.339c-1.115,2.236-2.725,5.353-0.484,6.825
			c0.933,0.25,1.69-0.654,2.353-1.475l-0.009-0.033l-0.006,0.035c0.001-0.031,0.003-0.111-0.002-0.141l0.004,0.034l0.001-0.034
			c-0.001,0.031,0.008,0.108,0.013,0.139c0.169-0.141,0.263-0.473,0.498-0.406C216.591,210.478,215.457,203.866,212.4,201.18z"/>
		<path style="fill:none;" d="M364.167,211.987c-2.223-2.732-6.453-5.368-6.298-1.325c0.45,0.732,1.046,1.788,0.109,2.424
			c-0.879,0.609-1.97,1.231-1.374,2.407c1.833,1.667,4.256,0.844,6.609,0.014C362.836,214.276,363.273,212.831,364.167,211.987z"/>
		<path style="fill:none;" d="M206.972,196.81c-2.894-1.369-6.53-2.943-6.84-0.074c-0.112,0.762,0.53,1.209,1.068,1.624
			c1.457,1.188-0.962,2.249-0.466,3.536c0.95,2.7,4.092,0.385,6.583-1.604C206.628,199.337,206.443,197.917,206.972,196.81z"/>
		<path style="fill:none;" d="M433.575,235.41c0.286,0.81,0.646,1.968-0.404,2.391c-5.277,2.237,1.732,4.576,4.607,3.471
			c-0.016-0.335-0.003-0.674,0.079-1.017c0.229-0.959,0.822-1.735,1.595-2.223C437.855,234.892,434.276,231.425,433.575,235.41z"/>
		<path style="fill:none;" d="M369.223,211.971c3.407-2.219,5.687-8.838-0.396-5.542c-0.242,0.034-0.291-0.306-0.44-0.469
			c-0.009,0.03-0.028,0.106-0.031,0.136l0.004-0.034l-0.008,0.033c0.009-0.029,0.017-0.108,0.021-0.139l0.001,0.035l0.014-0.031
			c-0.614-1.134-1.782-2.509-2.838-1.36c-1.356,1.747-0.516,4.167,0.294,6.463C367.028,210.726,368.393,211.139,369.223,211.971z"/>
		<path style="fill:none;" d="M364.781,222.619c0.242-0.034,0.291,0.306,0.44,0.469c0.008-0.03,0.028-0.106,0.031-0.136
			l-0.004,0.034l0.009-0.033c-0.009,0.029-0.018,0.108-0.021,0.139l-0.001-0.035l-0.013,0.031c3.347,5.123,4.403-2.156,2.559-5.057
			c-0.365,0.113-0.749,0.186-1.152,0.177c-0.932-0.021-1.765-0.401-2.395-0.992C360.852,219.47,358.846,225.881,364.781,222.619z"/>
		<path style="fill:none;" d="M369.387,217.007c2.207,2.301,5.015,5.011,6.314,2.46c0.375-0.672-0.065-1.318-0.419-1.898
			c-0.937-1.63,1.704-1.756,1.697-3.137c0.071-2.885-3.74-1.805-6.79-0.83C370.568,214.769,370.197,216.153,369.387,217.007z"/>
		<path style="fill:none;" d="M292.347,207.843c1.107-1.898-0.023-4.169-1.124-6.324c-1.14,0.582-2.641,0.401-3.624-0.339
			c-3.053,2.68-4.194,9.301,1.258,5.283c0.235-0.066,0.329,0.265,0.498,0.406c0.004-0.031,0.014-0.108,0.012-0.139l0.001,0.034
			l0.004-0.034c-0.005,0.03-0.003,0.109-0.002,0.141l-0.006-0.035l-0.009,0.033C290.113,207.911,291.453,209.121,292.347,207.843z"
			/>
	</g>
	<g>
		<path style="fill:none;" d="M370.996,321.233c-1.216-0.889-2.487-1.645-3.7-2.045c0.26-1.251,0.241-2.73,0.079-4.227
			c-2.414-0.518-4.823-0.648-6.359,0.311c0.063-1.81-1.257-3.831-2.912-5.663c-1.378,0.608-2.668,1.331-3.621,2.182
			c-0.953-0.851-2.243-1.574-3.621-2.182c-1.656,1.832-2.975,3.854-2.912,5.663c-1.536-0.959-3.945-0.828-6.359-0.311
			c-0.162,1.497-0.181,2.977,0.079,4.227c-1.213,0.4-2.485,1.156-3.7,2.045c0.759,2.349,1.849,4.501,3.446,5.353
			c-1.598,0.851-2.688,3.004-3.446,5.353c1.206,0.882,2.467,1.633,3.672,2.035c-0.08,0.579-0.117,1.257-0.098,2.059
			c0.014,0.732,0.055,1.455,0.047,2.177c2.414,0.518,4.823,0.648,6.359-0.311c-0.063,1.81,1.257,3.831,2.912,5.663
			c1.378-0.608,2.668-1.331,3.621-2.182c0.953,0.851,2.243,1.574,3.621,2.182c1.656-1.832,2.975-3.854,2.912-5.664
			c1.536,0.959,3.945,0.828,6.359,0.311c-0.007-0.723,0.033-1.445,0.047-2.177c0.018-0.802-0.018-1.48-0.098-2.059
			c1.205-0.402,2.466-1.153,3.672-2.035c-0.759-2.349-1.849-4.501-3.446-5.353C369.147,325.734,370.238,323.582,370.996,321.233z"/>
		<path style="fill:none;" d="M162.031,321.233c-1.215-0.889-2.487-1.645-3.7-2.045c0.26-1.251,0.241-2.73,0.079-4.227
			c-2.414-0.518-4.823-0.648-6.359,0.311c0.063-1.81-1.257-3.831-2.912-5.663c-1.378,0.608-2.668,1.331-3.621,2.182
			c-0.953-0.851-2.243-1.574-3.621-2.182c-1.656,1.832-2.975,3.854-2.912,5.663c-1.536-0.959-3.944-0.828-6.359-0.311
			c-0.162,1.497-0.181,2.977,0.079,4.227c-1.213,0.4-2.485,1.156-3.7,2.045c0.759,2.349,1.849,4.501,3.446,5.353
			c-1.597,0.851-2.688,3.004-3.446,5.353c1.206,0.882,2.467,1.633,3.672,2.035c-0.08,0.579-0.117,1.257-0.098,2.059
			c0.014,0.732,0.055,1.455,0.047,2.177c2.414,0.518,4.823,0.648,6.359-0.311c-0.063,1.81,1.257,3.831,2.912,5.664
			c1.378-0.608,2.668-1.331,3.621-2.182c0.953,0.851,2.243,1.574,3.621,2.182c1.656-1.832,2.975-3.854,2.912-5.663
			c1.536,0.959,3.945,0.828,6.359,0.311c-0.007-0.723,0.033-1.445,0.047-2.177c0.018-0.802-0.018-1.48-0.098-2.059
			c1.205-0.402,2.466-1.153,3.672-2.035c-0.759-2.349-1.849-4.501-3.446-5.353C160.182,325.734,161.272,323.582,162.031,321.233z"/>
		<path style="fill:none;" d="M135.768,217.216c-0.878,0.864-2.341,1.241-3.548,0.815c-1.843,2.897-0.79,10.181,2.559,5.057
			l-0.014-0.031l-0.001,0.035c-0.003-0.031-0.012-0.11-0.021-0.139l0.009,0.033l-0.004-0.034c0.003,0.031,0.022,0.106,0.031,0.136
			c0.148-0.163,0.198-0.503,0.44-0.469C141.15,225.879,139.153,219.475,135.768,217.216z"/>
		<path style="fill:none;" d="M134.156,211.064c1.85-2.896,0.832-10.245-2.543-5.103l0.014,0.031l0.001-0.035
			c0.003,0.031,0.012,0.11,0.02,0.139l-0.009-0.033l0.004,0.034c-0.003-0.031-0.022-0.106-0.031-0.136
			c-0.869,1.464-2.985-1.873-4.118,0.049c-0.609,2.473,1.386,4.243,3.282,5.961C131.607,211.139,132.972,210.726,134.156,211.064z"
			/>
		<path style="fill:#1E000E;" d="M131.64,206.064l0.009,0.033c-0.009-0.029-0.018-0.108-0.02-0.139l-0.001,0.035l-0.014-0.031
			c0.008,0.03,0.028,0.106,0.031,0.136L131.64,206.064z"/>
		<path style="fill:none;" d="M129.811,213.601c-3.05-0.975-6.861-2.055-6.79,0.83c-0.011,0.77,0.685,1.128,1.273,1.469
			c1.601,0.985-0.656,2.356,0.005,3.566c1.299,2.551,4.107-0.159,6.314-2.46C129.803,216.152,129.432,214.769,129.811,213.601z"/>
		<path style="fill:none;" d="M136.786,215.507c2.576,1.686,9.923,0.876,5.235-2.421c-1.459-1.017,0.741-2.312,0.072-3.504
			c-1.288-2.53-4.063,0.116-6.261,2.405C136.727,212.832,137.164,214.276,136.786,215.507z"/>
		<path style="fill:none;" d="M213.636,199.62c2.33,2.012,9.72,2.18,5.509-1.708c-1.312-1.201,1.04-2.194,0.535-3.464
			c-0.943-2.678-4.043-0.421-6.524,1.557C213.931,196.96,214.173,198.45,213.636,199.62z"/>
		<path style="fill:none;" d="M206.972,196.81c-2.894-1.369-6.53-2.943-6.84-0.074c-0.112,0.762,0.53,1.209,1.068,1.624
			c1.457,1.188-0.962,2.249-0.466,3.536c0.95,2.7,4.092,0.385,6.583-1.604C206.628,199.337,206.443,197.917,206.972,196.81z"/>
		<path style="fill:none;" d="M286.845,196.005c-2.565-2.415-7.105-4.469-6.418-0.481c0.543,0.666,1.273,1.634,0.428,2.388
			c-0.791,0.72-1.79,1.48-1.044,2.568c2.037,1.41,4.33,0.275,6.553-0.859C285.827,198.45,286.069,196.96,286.845,196.005z"/>
		<path style="fill:none;" d="M291.854,195.322c3.084-2.65,4.469-9.512-1.125-5.441c-0.235,0.066-0.329-0.265-0.498-0.406
			c-0.004,0.031-0.014,0.109-0.013,0.139l-0.001-0.034l-0.004,0.034c0.005-0.03,0.003-0.109,0.002-0.141l0.006,0.035l0.009-0.033
			c-0.759-1.043-2.098-2.252-2.993-0.974c-1.114,1.911,0.039,4.199,1.146,6.367C289.513,194.378,290.921,194.606,291.854,195.322z"
			/>
		<path style="fill:none;" d="M292.682,200.291c2.491,1.989,5.633,4.304,6.583,1.604c0.284-0.715-0.239-1.298-0.666-1.826
			c-1.144-1.492,1.457-1.966,1.268-3.334c-0.31-2.869-3.946-1.295-6.84,0.074C293.557,197.917,293.372,199.337,292.682,200.291z"/>
		<path style="fill:none;" d="M211.615,194.868c2.216-2.626,2.178-10.045-1.847-5.394l0.009,0.033l0.006-0.035
			c-0.001,0.031-0.003,0.111,0.002,0.141l-0.004-0.034l-0.001,0.034c0.002-0.031-0.008-0.108-0.012-0.139
			c-1.055,1.337-2.711-2.251-4.088-0.495c-0.931,2.371,0.813,4.389,2.465,6.342C209.079,194.606,210.486,194.378,211.615,194.868z"
			/>
		<path style="fill:none;" d="M363.214,215.507c-0.378-1.231,0.059-2.676,0.954-3.52c-2.223-2.732-6.453-5.368-6.298-1.325
			c0.45,0.732,1.046,1.788,0.109,2.424c-0.879,0.609-1.97,1.231-1.374,2.407C358.437,217.16,360.86,216.337,363.214,215.507z"/>
		<path style="fill:none;" d="M364.781,222.619c0.242-0.034,0.291,0.306,0.44,0.469c0.008-0.03,0.028-0.106,0.031-0.136
			l-0.004,0.034l0.009-0.033c-0.009,0.029-0.018,0.108-0.021,0.139l-0.001-0.035l-0.013,0.031c3.347,5.123,4.403-2.156,2.559-5.057
			c-0.365,0.113-0.749,0.186-1.152,0.177c-0.932-0.021-1.765-0.401-2.395-0.992C360.852,219.47,358.846,225.881,364.781,222.619z"/>
		<path style="fill:none;" d="M369.223,211.971c3.407-2.219,5.687-8.838-0.396-5.542c-0.242,0.034-0.291-0.306-0.44-0.469
			c-0.009,0.03-0.028,0.106-0.031,0.136l0.004-0.034l-0.008,0.033c0.009-0.029,0.017-0.108,0.021-0.139l0.001,0.035l0.014-0.031
			c-0.614-1.134-1.782-2.509-2.838-1.36c-1.356,1.747-0.516,4.167,0.294,6.463C367.028,210.726,368.393,211.139,369.223,211.971z"/>
		<path style="fill:none;" d="M369.387,217.007c2.207,2.301,5.015,5.011,6.314,2.46c0.375-0.672-0.065-1.318-0.419-1.898
			c-0.937-1.63,1.704-1.756,1.697-3.137c0.071-2.885-3.74-1.805-6.79-0.83C370.568,214.769,370.197,216.153,369.387,217.007z"/>
		<path style="fill:none;" d="M212.4,201.18c-0.984,0.74-2.484,0.921-3.624,0.339c-1.115,2.236-2.725,5.353-0.484,6.825
			c0.933,0.25,1.69-0.654,2.353-1.475l-0.009-0.033l-0.006,0.035c0.001-0.031,0.003-0.111-0.002-0.141l0.004,0.034l0.001-0.034
			c-0.001,0.031,0.008,0.108,0.013,0.139c0.169-0.141,0.263-0.473,0.498-0.406C216.591,210.478,215.457,203.866,212.4,201.18z"/>
		<path style="fill:none;" d="M269.151,298.136c12.599,5.949,16.584-3.895,17.693-14.704c-9.928-4.449-20.434-5.907-21.58,7.972
			c-0.501,2.005-1.122,3.613-2.721,4.012c-0.069-0.103-0.122-0.217-0.212-0.307c1.009-3.159,0.502-6.56-1.445-9.285
			c-3.334-0.323-6.532,0.938-8.764,3.391c-0.123-0.033-0.248-0.021-0.372-0.03c-0.454-1.584,0.628-2.926,2.115-4.362
			c11.452-7.934,4.918-16.311-3.888-22.675c-8.817,6.373-15.333,14.743-3.886,22.675c1.486,1.436,2.568,2.778,2.114,4.362
			c-0.124,0.008-0.249-0.003-0.372,0.03c-2.231-2.453-5.43-3.715-8.763-3.391c-1.947,2.726-2.454,6.126-1.445,9.285
			c-0.09,0.09-0.143,0.204-0.212,0.307c-1.599-0.399-2.22-2.006-2.72-4.013c-1.144-13.885-11.667-12.415-21.581-7.971
			c1.112,10.823,5.099,20.648,17.694,14.703c1.987-0.569,3.69-0.835,4.835,0.35c-0.055,0.111-0.127,0.214-0.16,0.337
			c-3.24,0.705-5.932,2.845-7.319,5.894c1.387,3.049,4.078,5.188,7.319,5.894c0.033,0.123,0.106,0.226,0.16,0.337
			c-1.145,1.186-2.847,0.919-4.835,0.349c-12.599-5.949-16.584,3.895-17.693,14.704c9.928,4.449,20.434,5.907,21.581-7.972
			c0.5-2.005,1.121-3.613,2.72-4.012c0.069,0.103,0.122,0.217,0.212,0.307c-1.01,3.159-0.502,6.56,1.445,9.285
			c3.334,0.323,6.532-0.938,8.763-3.391c0.123,0.033,0.248,0.021,0.372,0.03c0.454,1.584-0.628,2.925-2.115,4.362
			c-11.452,7.934-4.918,16.311,3.888,22.675c8.817-6.373,15.333-14.743,3.886-22.675c-1.486-1.436-2.568-2.778-2.114-4.362
			c0.124-0.009,0.249,0.003,0.372-0.03c2.231,2.453,5.43,3.715,8.763,3.391c1.947-2.726,2.454-6.126,1.445-9.285
			c0.09-0.09,0.143-0.204,0.212-0.307c1.599,0.399,2.22,2.006,2.72,4.013c1.145,13.885,11.667,12.415,21.581,7.971
			c-0.387-1.729-0.66-3.482-1.001-5.246c-3.756-19.814-14.466-6.45-21.528-9.807c0.054-0.111,0.127-0.214,0.16-0.337
			c3.24-0.705,5.932-2.845,7.318-5.894c-1.387-3.049-4.078-5.188-7.319-5.894c-0.033-0.123-0.106-0.226-0.16-0.337
			C265.461,297.299,267.163,297.566,269.151,298.136z"/>
		<path style="fill:none;" d="M292.347,207.843c1.107-1.898-0.023-4.169-1.124-6.324c-1.14,0.582-2.641,0.401-3.624-0.339
			c-3.053,2.68-4.194,9.301,1.258,5.283c0.235-0.066,0.329,0.265,0.498,0.406c0.004-0.031,0.014-0.108,0.012-0.139l0.001,0.034
			l0.004-0.034c-0.005,0.03-0.003,0.109-0.002,0.141l-0.006-0.035l-0.009,0.033C290.113,207.911,291.453,209.121,292.347,207.843z"
			/>
		<path style="fill:#1E000E;" d="M446.761,227.656c-0.046,1.38-0.411,2.724-1.024,4.204c1.43-8.636-7.134-15.163-8.632-7.091
			c-0.175,0.943-1.333,1.306-2.047,0.665c-5.997-5.393-8.988,4.728-2.533,10.901c-2.047-0.536-3.685-4.732-5.461-2.401
			c-0.629,2.773,3.572,1.526,5.241,2.842c-3.574-0.05-8.634,0.133-10.366,3.864c-1.152,2.647,0.839,4.41,3.285,4.92
			c3.262,1.48-4.589,5.348,1.45,7.833c4.058,9.843-2.596,28.242-13.195,31.592c-5.346,1.541-12.359,0.701-15.578-4.365
			c-5.255-8.152,3.445-13.568,5.275-7.5c0.125,0.415,0.737,0.329,0.764-0.103c0.262-4.156-3.668-8.793-7.683-8.536
			c1.299-1.172,0.909-2.433,0.88-3.915c2.204,4.155,6.736,0.838,8.007-2.289c0.797-1.09,2.921-2.114,3.312-0.035
			c-0.212,3.783-4.503,7.007,1.045,9.874c-1.4-1.569,0.966-3.18,2.373-3.6c10.733-4.762-1.438-17.093-10.184-6.899
			c-2.317-0.786,0.716-3.118,1.648-3.712c11.589-4.556,4.682-11.936,2.249-19.999c-7.581,3.638-17.706,3.525-13.247,15.15
			c0.189,1.088,0.513,4.9-1.63,3.719c1.626-13.339-15.685-13.997-11.963-2.867c0.641,1.32,1.044,4.159-1.057,4.18
			c5.787,2.18,5.368-3.17,7.994-5.888c1.799-1.113,2.475,1.145,2.208,2.469c-1.453,3.045-0.841,8.633,3.71,7.456
			c-1.149,0.984-2.376,1.628-2.298,3.417c-2.565-3.382-8.389-3.262-10.764-0.027c-0.254,0.346,0.123,0.772,0.506,0.579
			c2.804-1.415,6.522,3.132,4.262,6.255c-1.49,2.949-4.957,4.366-8.032,3.791c-17.068-4.886-15.368-27.798-6.519-39.458
			c2.779,2.05,5.901,1.543,5.773-3.133c-0.027-0.967,0.991-1.598,1.829-1.114c7.029,4.058,7.833-6.492,0.21-11.172
			c2.114,0.092,4.599,3.848,5.844,1.196c0.031-2.843-3.814-0.739-5.723-1.673c9.218-0.522,13.068-10.285,5.127-9.919
			c-0.974,0.045-1.657-1.002-1.147-1.833c4.003-6.533-5.777-8.555-11.156-0.283c0.078-2.128,3.903-4.654,1.159-5.851
			c-2.911-0.078-0.718,3.803-1.664,5.73c-0.422-8.743-10.17-13.319-9.932-5.112c0.028,0.959-1.028,1.558-1.861,1.081
			c-7-4.008-7.79,6.517-0.179,11.19c-2.114-0.092-4.602-3.851-5.844-1.196c-0.028,2.842,3.813,0.739,5.723,1.673
			c-3.504,0.704-8.412,1.95-9.319,5.963c-0.568,2.83,1.749,4.133,4.247,4.117c3.701,0.347-4.37,7.65,4.824,7.313
			c0.551,9.647-1.288,22.425-10.3,27.764c-4.778,2.57-11.771,3.429-15.78-0.959c-6.471-7.246,1.543-14.02,4.071-8.347
			c0.153,0.344,0.677,0.248,0.66-0.128c-0.197-4.172-4.738-8.191-8.921-7.04c0.57-1.368-0.048-2.055-0.272-3.372
			c2.994,3.627,6.766-0.534,7.383-3.852c0.562-1.228,2.436-2.658,3.237-0.7c0.553,3.749-3.002,7.77,3.008,9.462
			c-1.687-1.255,0.307-3.31,1.601-4.003c9.556-6.822-4.846-16.455-11.363-4.71c-2.428-0.304,0.075-3.198,0.868-3.967
			c10.436-6.793,2.186-12.634-1.818-20.043c-6.695,5.088-16.636,7.013-9.93,17.504c0.404,1.028,1.488,4.697-0.849,3.971
			c-1.089-13.394-18.179-10.558-12.295-0.403c0.893,1.164,1.859,3.864-0.195,4.307c6.189,0.932,4.587-4.183,6.647-7.375
			c1.538-1.452,2.655,0.624,2.659,1.975c-0.811,3.275,0.912,8.626,5.134,6.557c-0.749,1.108-1.597,1.478-1.641,2.964
			c-3.231-2.651-8.625-1.035-10.309,2.54c-0.152,0.323,0.231,0.611,0.525,0.407c1.155-0.801,2.969-0.734,4.046,0.131
			c4.164,4.034-1.284,10.665-6.058,10.49c-17.727-1.375-18.888-24.228-12.699-36.948c3.04,1.703,6.104,0.808,5.362-3.827
			c-0.154-0.96,0.776-1.723,1.675-1.353c7.491,3.078,6.891-7.476-1.279-11.106c2.108-0.188,5.066,3.206,5.951,0.413
			c-0.344-2.823-3.878-0.229-5.893-0.903c9.068-1.735,11.594-11.92,3.772-10.509c-0.96,0.173-1.775-0.774-1.379-1.666
			c3.105-7.004-6.857-7.716-11.096,1.193c-0.205-2.123,3.261-5.13,0.376-5.953c-2.888,0.297-0.213,3.874-0.892,5.9
			c-1.574-8.611-11.84-11.859-10.521-3.755c0.154,0.947-0.813,1.68-1.702,1.317c-7.468-3.048-6.861,7.488,1.301,11.115
			c-2.108,0.188-5.069-3.208-5.951-0.413c0.347,2.822,3.877,0.229,5.893,0.903c-3.381,1.161-8.081,3.044-8.45,7.141
			c-0.189,2.879,2.277,3.865,4.749,3.52c3.716-0.163-3.355,8.319,5.902,6.561c2.355,9.697,2.364,22.871-5.587,30.002
			c-4.143,3.409-10.802,5.916-15.578,2.367c-7.324-5.512-0.851-14.057,2.594-9.185c0.234,0.33,0.755,0.083,0.662-0.311
			c-0.887-3.73-5.135-6.525-9.691-3.409c-0.075-4.53,15.396-39.013,6.427-46.576c-4.215-3.468-10.149-8.999-10.298-14.272
			c5.833,13.318,19.386,10.577,13.338-0.601c10.518,5.922,14.526-7.017,0.53-13.343c6.38,0.144,9.126,4.484,13.237,8.967
			c10.792,9.334,29.678-2.214,39.18-9.316c-9.524-7.113-28.38-18.647-39.18-9.315c-4.113,4.484-6.853,8.821-13.237,8.967
			c14.341-6.485,9.657-19.691-0.928-13.055c6.605-10.598-6.602-15.255-13.058-0.892c0.598-15.427,24.016-8.864,5.263-43.995
			c-1.564-2.792-3.585-5.552-5.571-8.171c-1.986,2.619-4.007,5.379-5.572,8.171c-18.753,35.131,4.665,28.568,5.263,43.995
			c-6.456-14.363-19.663-9.706-13.058,0.892c-10.585-6.637-15.269,6.57-0.928,13.055c-6.384-0.145-9.124-4.483-13.237-8.967
			c-10.801-9.331-29.656,2.202-39.181,9.315c9.502,7.102,28.389,18.65,39.181,9.316c4.111-4.483,6.857-8.823,13.237-8.967
			c-13.995,6.325-9.988,19.264,0.53,13.343c-6.048,11.178,7.505,13.919,13.338,0.601c-0.149,5.273-6.082,10.804-10.298,14.272
			c-8.968,7.563,6.502,42.046,6.427,46.576c-4.555-3.117-8.805-0.321-9.691,3.41c-0.094,0.394,0.428,0.641,0.661,0.311
			c3.448-4.878,9.916,3.682,2.594,9.184c-4.775,3.549-11.435,1.042-15.576-2.367c-7.955-7.133-7.94-20.301-5.588-30.002
			c9.264,1.754,2.183-6.723,5.902-6.561c2.473,0.345,4.939-0.642,4.75-3.52c-0.368-4.097-5.069-5.98-8.45-7.141
			c2.013-0.673,5.55,1.919,5.893-0.902c-0.885-2.795-3.84,0.6-5.951,0.412c8.162-3.627,8.769-14.164,1.301-11.115
			c-0.888,0.363-1.856-0.37-1.701-1.317c1.319-8.104-8.947-4.856-10.521,3.755c-0.664-2.011,1.958-5.578-0.891-5.9
			c-2.846,0.837,0.57,3.844,0.375,5.953c-4.239-8.909-14.201-8.198-11.096-1.193c0.395,0.892-0.419,1.839-1.379,1.666
			c-7.823-1.412-5.297,8.774,3.772,10.509c-2.013,0.673-5.551-1.92-5.893,0.902c0.887,2.794,3.84-0.6,5.951-0.412
			c-8.17,3.63-8.77,14.184-1.279,11.106c0.9-0.37,1.829,0.393,1.675,1.353c-0.742,4.635,2.321,5.53,5.362,3.827
			c6.191,12.714,5.026,35.579-12.699,36.948c-4.772,0.175-10.223-6.457-6.058-10.491c1.172-0.941,3.215-0.938,4.334,0.099
			c0.182,0.169,0.482-0.042,0.393-0.273c-1.478-3.828-7.125-5.644-10.465-2.905c-0.044-1.486-0.892-1.856-1.641-2.964
			c4.225,2.066,5.942-3.281,5.133-6.557c0.004-1.35,1.121-3.427,2.659-1.975c2.052,3.186,0.475,8.316,6.648,7.375
			c-2.055-0.447-1.087-3.141-0.195-4.307c5.885-10.16-11.209-12.985-12.294,0.403c-2.337,0.726-1.253-2.944-0.848-3.971
			c6.702-10.497-3.236-12.414-9.933-17.503c-4.002,7.406-12.252,13.258-1.815,20.043c0.792,0.769,3.295,3.663,0.867,3.967
			c-6.524-11.748-20.917-2.107-11.364,4.711c1.294,0.691,3.288,2.752,1.601,4.003c6.021-1.708,2.451-5.704,3.008-9.462
			c0.801-1.958,2.676-0.528,3.237,0.7c0.614,3.317,4.393,7.479,7.383,3.852c-0.224,1.317-0.842,2.004-0.272,3.372
			c-4.343-1.196-9.073,3.184-8.924,7.52c0.009,0.275,0.389,0.353,0.481,0.094c2.268-6.421,10.903,0.413,4.253,7.902
			c-4.009,4.388-11.002,3.529-15.778,0.959c-9.016-5.34-10.847-18.113-10.301-27.764c9.187,0.34,1.129-6.92,4.823-7.313
			c2.498,0.016,4.815-1.287,4.247-4.117c-0.906-4.013-5.815-5.258-9.319-5.963c1.906-0.933,5.753,1.169,5.723-1.672
			c-1.246-2.654-3.727,1.102-5.844,1.195c7.611-4.673,6.821-15.198-0.179-11.19c-0.833,0.477-1.888-0.122-1.861-1.081
			c0.237-8.207-9.51-3.631-9.933,5.112c-0.944-1.925,1.247-5.81-1.663-5.731c-2.744,1.2,1.079,3.72,1.158,5.851
			c-5.379-8.271-15.16-6.25-11.156,0.283c0.51,0.832-0.173,1.878-1.147,1.833c-7.941-0.366-4.092,9.397,5.127,9.919
			c-1.906,0.933-5.754-1.169-5.723,1.672c1.246,2.654,3.727-1.102,5.844-1.195c-7.623,4.68-6.818,15.229,0.21,11.172
			c0.838-0.484,1.855,0.147,1.829,1.114c-0.128,4.676,2.993,5.183,5.773,3.133c8.85,11.655,10.548,34.577-6.519,39.458
			c-3.075,0.576-6.542-0.842-8.032-3.791c-2.222-3.085,1.353-7.541,4.143-6.31c0.41,0.181,0.792-0.319,0.514-0.671
			c-2.441-3.092-8.126-3.156-10.652,0.174c0.077-1.791-1.148-2.432-2.298-3.417c4.554,1.175,5.161-4.408,3.71-7.455
			c-0.267-1.324,0.409-3.583,2.207-2.469c2.617,2.713,2.225,8.074,7.995,5.888c-2.103-0.024-1.697-2.858-1.057-4.18
			c3.723-11.136-13.591-10.467-11.962,2.867c-2.143,1.181-1.819-2.632-1.629-3.72c4.454-11.631-5.665-11.51-13.25-15.149
			c-2.431,8.06-9.336,15.45,2.252,19.998c0.93,0.594,3.964,2.926,1.647,3.712c-8.752-10.196-20.913,2.141-10.185,6.899
			c1.407,0.417,3.775,2.034,2.374,3.599c5.555-2.883,1.254-6.08,1.044-9.874c0.391-2.079,2.515-1.055,3.312,0.035
			c1.269,3.126,5.808,6.443,8.007,2.289c-0.03,1.481-0.419,2.745,0.88,3.915c-3.931-0.254-7.782,4.189-7.694,8.276
			c0.01,0.486,0.695,0.573,0.856,0.114c1.992-5.672,10.376-0.28,5.193,7.748c-3.218,5.066-10.231,5.906-15.576,4.365
			c-10.609-3.36-17.244-21.728-13.196-31.591c6.046-2.503-1.817-6.344,1.45-7.833c2.446-0.51,4.438-2.272,3.285-4.92
			c-1.732-3.731-6.792-3.914-10.366-3.864c1.667-1.314,5.872-0.07,5.242-2.841c-1.778-2.331-3.411,1.863-5.461,2.4
			c6.455-6.173,3.464-16.294-2.533-10.901c-0.714,0.642-1.872,0.279-2.047-0.665c-1.498-8.072-10.062-1.545-8.632,7.091
			c-1.326-1.679-0.01-5.785-2.749-5.282l3.012,6.986l1.986,4.579c-0.003,0.002-0.006,0.003-0.009,0.005c0,0,2.805,6.505,2.82,6.512
			c0.004-0.001,0.008-0.003,0.013-0.004l2.247,5.181c-0.007,0.016-0.011,0.032-0.018,0.048c0,0,1.315,3.049,1.315,3.023
			c1.312,3.006,2.654,6.076,4.015,9.181l0.025,0.058v0c7.971,18.189,16.658,37.773,24.661,55.233
			c2.929,6.39,2.84,11.717,2.251,16.293c-0.249,1.934,0.568,3.874,2.158,5.002c8.917,6.323,14.624,16.056,16.601,26.636
			c1.071,5.734-0.306,11.535-3.193,16.604c-2.767,4.858,0.231,11.658,7.295,11.484c2.733-0.11,5.233-1.786,7.749-2.71
			c17.9-7.548,36.46-13.47,55.403-17.681c23.626-5.255,47.821-7.84,72.017-7.701c22.967,0.13,45.906,2.713,68.333,7.701
			c18.944,4.211,37.503,10.133,55.403,17.681c2.523,0.924,5.014,2.6,7.75,2.71c6.981,0.203,10.11-6.639,7.284-11.524
			c-2.882-4.98-4.278-10.695-3.236-16.353c1.903-10.332,7.256-19.876,15.785-26.251c1.914-1.431,3.186-3.568,3.607-5.921
			c0.378-2.115,0.671-4.283,1.395-6.304c2.972-8.289,6.424-16.377,9.619-24.584c0.129-0.331,0.257-0.662,0.385-0.994
			c0.016-0.042,0.032-0.083,0.048-0.125c2.879-7.483,5.672-14.999,8.516-22.496c2.746-7.239,21.735-52.269,21.735-52.269
			C447.686,226.236,446.791,226.767,446.761,227.656z M258.404,167.305c-0.963,0.99-2.935-0.771-3.409,1.049
			c-0.154,0.662-0.293,1.432-1.031,1.648c-2.631,0.882-2.809-2.756-2.783-5.884c1.295-0.284,2.414-1.026,3.189-2.047
			C257.181,163.498,260.423,165.35,258.404,167.305z M261.602,155.755c0.376,1.329-2.135,2.156-0.797,3.477
			c0.496,0.465,1.094,0.97,0.911,1.717c-0.552,2.719-3.79,1.056-6.485-0.531c0.165-0.523,0.256-1.079,0.256-1.657
			c0-0.757-0.153-1.477-0.43-2.133C257.699,154.908,260.919,153.031,261.602,155.755z M253.198,147.21
			c1.339,0.339,0.8,2.927,2.613,2.428c0.65-0.197,1.386-0.462,1.943,0.069c2.08,1.838-0.985,3.813-3.708,5.354
			c-0.859-0.938-2.036-1.577-3.364-1.742C250.513,150.171,250.496,146.439,253.198,147.21z M241.596,150.215
			c0.963-0.99,2.935,0.771,3.409-1.049c0.155-0.662,0.293-1.432,1.031-1.648c2.631-0.882,2.809,2.756,2.783,5.884
			c-1.295,0.284-2.415,1.026-3.189,2.047C242.819,154.023,239.577,152.171,241.596,150.215z M238.398,161.766
			c-0.376-1.329,2.135-2.156,0.796-3.477c-0.496-0.465-1.094-0.97-0.911-1.717c0.552-2.719,3.79-1.056,6.485,0.531
			c-0.166,0.523-0.256,1.079-0.256,1.657c0,0.757,0.153,1.477,0.43,2.133C242.301,162.613,239.081,164.49,238.398,161.766z
			 M246.802,170.311c-1.339-0.339-0.8-2.927-2.613-2.428c-0.65,0.197-1.386,0.462-1.943-0.069c-2.08-1.838,0.985-3.813,3.708-5.354
			c0.859,0.939,2.036,1.577,3.364,1.742C249.487,167.35,249.504,171.081,246.802,170.311z M142.094,209.582
			c0.669,1.192-1.532,2.487-0.072,3.504c4.688,3.298-2.66,4.108-5.235,2.421c0.378-1.231-0.059-2.675-0.954-3.52
			C138.031,209.698,140.806,207.052,142.094,209.582z M124.299,219.467c-0.662-1.211,1.596-2.581-0.005-3.566
			c-0.588-0.341-1.284-0.699-1.273-1.469c-0.071-2.885,3.74-1.805,6.79-0.83c-0.378,1.168-0.008,2.551,0.802,3.406
			C128.406,219.308,125.597,222.018,124.299,219.467z M130.777,211.971c-1.895-1.718-3.891-3.488-3.282-5.961
			c1.133-1.922,3.249,1.415,4.118-0.049c3.375-5.142,4.393,2.206,2.543,5.103C132.972,210.726,131.607,211.139,130.777,211.971z
			 M135.219,222.619c-0.242-0.034-0.291,0.306-0.44,0.469c-0.008-0.03-0.028-0.106-0.031-0.136l0.004,0.034l-0.009-0.033
			c0.009,0.029,0.017,0.108,0.021,0.139l0.001-0.035l0.014,0.031c-3.349,5.125-4.402-2.159-2.559-5.057
			c1.207,0.426,2.67,0.049,3.548-0.815C139.153,219.475,141.15,225.879,135.219,222.619z M162.031,331.938
			c-1.206,0.882-2.467,1.633-3.672,2.035c0.08,0.579,0.117,1.257,0.098,2.059c-0.014,0.732-0.054,1.455-0.047,2.177
			c-2.414,0.518-4.823,0.648-6.359-0.311c0.063,1.81-1.257,3.831-2.912,5.663c-1.378-0.608-2.668-1.331-3.621-2.182
			c-0.953,0.851-2.243,1.574-3.621,2.182c-1.656-1.832-2.975-3.854-2.912-5.664c-1.536,0.959-3.944,0.828-6.359,0.311
			c0.007-0.723-0.033-1.445-0.047-2.177c-0.018-0.802,0.018-1.48,0.098-2.059c-1.205-0.402-2.466-1.153-3.672-2.035
			c0.759-2.349,1.849-4.501,3.446-5.353c-1.597-0.851-2.688-3.003-3.446-5.353c1.216-0.889,2.487-1.645,3.7-2.045
			c-0.26-1.251-0.241-2.73-0.079-4.227c2.414-0.518,4.822-0.648,6.359,0.311c-0.063-1.81,1.257-3.831,2.912-5.663
			c1.378,0.608,2.668,1.331,3.621,2.182c0.953-0.851,2.243-1.574,3.621-2.182c1.656,1.832,2.975,3.854,2.912,5.663
			c1.536-0.959,3.945-0.828,6.359-0.311c0.162,1.497,0.181,2.977-0.079,4.227c1.213,0.4,2.485,1.156,3.7,2.045
			c-0.759,2.349-1.849,4.501-3.446,5.353C160.182,327.437,161.272,329.589,162.031,331.938z M299.868,196.736
			c0.189,1.368-2.412,1.841-1.268,3.334c0.427,0.528,0.949,1.111,0.666,1.826c-0.95,2.7-4.092,0.385-6.583-1.604
			c0.69-0.954,0.875-2.374,0.345-3.482C295.922,195.441,299.557,193.866,299.868,196.736z M287.239,188.501
			c0.895-1.278,2.234-0.069,2.993,0.974c0.169,0.141,0.263,0.473,0.498,0.406c5.594-4.071,4.208,2.791,1.125,5.441
			c-0.933-0.715-2.341-0.944-3.47-0.453C287.277,192.7,286.125,190.412,287.239,188.501z M279.811,200.479
			c-0.746-1.087,0.254-1.847,1.044-2.568c0.845-0.754,0.115-1.722-0.428-2.388c-0.687-3.988,3.853-1.934,6.418,0.481
			c-0.775,0.955-1.017,2.445-0.48,3.615C284.141,200.754,281.848,201.889,279.811,200.479z M219.679,194.448
			c0.505,1.27-1.847,2.263-0.535,3.464c4.211,3.888-3.179,3.72-5.509,1.708c0.537-1.17,0.295-2.66-0.48-3.615
			C215.637,194.027,218.736,191.77,219.679,194.448z M205.681,188.98c1.377-1.756,3.033,1.832,4.088,0.495
			c0.004,0.031,0.014,0.109,0.012,0.139l0.001-0.034l0.004,0.034c-0.005-0.03-0.003-0.109-0.002-0.141l-0.006,0.035l-0.009-0.033
			c4.025-4.652,4.063,2.767,1.847,5.394c-1.129-0.491-2.537-0.262-3.47,0.453C206.494,193.369,204.75,191.35,205.681,188.98z
			 M200.734,201.896c-0.496-1.287,1.923-2.348,0.466-3.536c-0.538-0.416-1.18-0.863-1.068-1.624c0.31-2.869,3.946-1.295,6.84,0.074
			c-0.529,1.108-0.345,2.528,0.346,3.482C204.827,202.281,201.685,204.596,200.734,201.896z M210.645,206.869
			c-0.004-0.031-0.014-0.108-0.013-0.139l-0.001,0.034l-0.004-0.034c0.005,0.03,0.003,0.109,0.002,0.141l0.006-0.035
			L210.645,206.869c-0.663,0.821-1.42,1.725-2.353,1.475c-2.241-1.472-0.631-4.589,0.484-6.825c1.14,0.582,2.64,0.401,3.624-0.339
			c3.056,2.686,4.19,9.298-1.258,5.283C210.908,206.396,210.814,206.728,210.645,206.869z M264.476,298.822
			c3.241,0.706,5.932,2.845,7.319,5.894c-1.387,3.048-4.078,5.188-7.318,5.894c-0.033,0.123-0.106,0.226-0.16,0.337
			c7.062,3.358,17.772-10.007,21.528,9.807c0.34,1.764,0.614,3.517,1.001,5.246c-9.914,4.444-20.436,5.914-21.581-7.971
			c-0.5-2.007-1.121-3.614-2.72-4.013c-0.069,0.103-0.122,0.217-0.212,0.307c1.009,3.159,0.502,6.559-1.445,9.285
			c-3.333,0.323-6.533-0.938-8.763-3.391c-0.123,0.033-0.248,0.021-0.372,0.03c-0.454,1.584,0.628,2.926,2.114,4.362
			c11.446,7.932,4.931,16.302-3.886,22.675c-8.806-6.364-15.34-14.741-3.888-22.675c1.488-1.437,2.57-2.778,2.115-4.362
			c-0.124-0.009-0.249,0.003-0.372-0.03c-2.231,2.454-5.429,3.714-8.763,3.391c-1.947-2.725-2.454-6.126-1.445-9.285
			c-0.09-0.09-0.143-0.204-0.212-0.307c-1.599,0.398-2.22,2.007-2.72,4.012c-1.146,13.879-11.653,12.421-21.581,7.972
			c1.11-10.809,5.094-20.653,17.693-14.704c1.988,0.57,3.691,0.836,4.835-0.349c-0.055-0.111-0.127-0.214-0.16-0.337
			c-3.241-0.706-5.932-2.845-7.319-5.894c1.387-3.048,4.078-5.188,7.319-5.894c0.033-0.123,0.106-0.226,0.16-0.337
			c-1.145-1.185-2.848-0.919-4.835-0.35c-12.595,5.945-16.583-3.88-17.694-14.703c9.914-4.444,20.437-5.914,21.581,7.971
			c0.5,2.007,1.121,3.614,2.72,4.013c0.069-0.103,0.122-0.217,0.212-0.307c-1.009-3.159-0.502-6.559,1.445-9.285
			c3.333-0.323,6.532,0.938,8.763,3.391c0.123-0.033,0.248-0.021,0.372-0.03c0.454-1.584-0.628-2.926-2.114-4.362
			c-11.446-7.932-4.931-16.302,3.886-22.675c8.806,6.364,15.34,14.741,3.888,22.675c-1.488,1.437-2.57,2.778-2.115,4.362
			c0.124,0.008,0.249-0.003,0.372,0.03c2.232-2.454,5.429-3.714,8.764-3.391c1.947,2.725,2.454,6.126,1.445,9.285
			c0.09,0.09,0.143,0.204,0.212,0.307c1.599-0.399,2.22-2.007,2.721-4.012c1.146-13.879,11.653-12.421,21.58-7.972
			c-1.109,10.809-5.094,20.653-17.693,14.704c-1.988-0.57-3.691-0.837-4.835,0.349C264.37,298.596,264.443,298.699,264.476,298.822z
			 M289.355,206.869l0.009-0.033l0.006,0.035c-0.001-0.031-0.003-0.111,0.002-0.141l-0.004,0.034l-0.001-0.034
			C289.369,206.761,289.359,206.838,289.355,206.869c-0.169-0.141-0.263-0.473-0.498-0.406c-5.451,4.018-4.31-2.603-1.258-5.283
			c0.984,0.74,2.485,0.921,3.624,0.339c1.1,2.155,2.23,4.426,1.124,6.324C291.453,209.121,290.113,207.911,289.355,206.869z
			 M376.979,214.432c0.007,1.381-2.634,1.507-1.697,3.137c0.353,0.58,0.794,1.227,0.419,1.898c-1.299,2.551-4.107-0.159-6.314-2.46
			c0.81-0.854,1.181-2.238,0.802-3.406C373.239,212.627,377.051,211.546,376.979,214.432z M365.549,204.601
			c1.056-1.149,2.223,0.227,2.838,1.36c0.148,0.162,0.198,0.503,0.44,0.469c6.083-3.296,3.803,3.322,0.396,5.542
			c-0.83-0.832-2.195-1.245-3.379-0.908C365.033,208.768,364.193,206.348,365.549,204.601z M366.627,218.208
			c0.404,0.009,0.787-0.064,1.152-0.177c1.844,2.901,0.788,10.179-2.559,5.057l0.013-0.031l0.001,0.035
			c0.003-0.031,0.012-0.11,0.021-0.139l-0.009,0.033l0.004-0.034c-0.003,0.031-0.022,0.106-0.031,0.136
			c-0.148-0.163-0.198-0.503-0.44-0.469c-5.934,3.262-3.929-3.149-0.549-5.403C364.862,217.808,365.695,218.188,366.627,218.208z
			 M356.604,215.493c-0.595-1.176,0.495-1.798,1.374-2.407c0.937-0.636,0.341-1.692-0.109-2.424
			c-0.155-4.044,4.075-1.408,6.298,1.325c-0.895,0.844-1.332,2.289-0.954,3.52C360.86,216.337,358.437,217.16,356.604,215.493z
			 M370.996,331.938c-1.206,0.882-2.467,1.633-3.672,2.035c0.08,0.579,0.117,1.257,0.098,2.059
			c-0.014,0.732-0.054,1.455-0.047,2.177c-2.414,0.518-4.823,0.648-6.359-0.311c0.063,1.81-1.257,3.831-2.912,5.664
			c-1.378-0.608-2.668-1.331-3.621-2.182c-0.953,0.851-2.243,1.574-3.621,2.182c-1.656-1.832-2.975-3.854-2.912-5.663
			c-1.536,0.959-3.945,0.828-6.359,0.311c0.007-0.723-0.033-1.445-0.047-2.177c-0.018-0.802,0.018-1.48,0.098-2.059
			c-1.205-0.402-2.466-1.153-3.672-2.035c0.759-2.349,1.849-4.501,3.446-5.353c-1.598-0.851-2.688-3.003-3.446-5.353
			c1.216-0.889,2.487-1.645,3.7-2.045c-0.26-1.251-0.241-2.73-0.079-4.227c2.414-0.518,4.822-0.648,6.359,0.311
			c-0.063-1.81,1.257-3.831,2.912-5.663c1.378,0.608,2.668,1.331,3.621,2.182c0.953-0.851,2.243-1.574,3.621-2.182
			c1.656,1.832,2.975,3.854,2.912,5.663c1.536-0.959,3.945-0.828,6.359-0.311c0.162,1.497,0.181,2.977-0.079,4.227
			c1.214,0.4,2.485,1.156,3.7,2.045c-0.759,2.349-1.849,4.501-3.446,5.353C369.148,327.437,370.238,329.589,370.996,331.938z"/>
		<path style="fill:#1E000E;" d="M368.372,205.957c-0.003,0.031-0.012,0.11-0.021,0.139l0.008-0.033l-0.004,0.034
			c0.003-0.031,0.022-0.106,0.031-0.136l-0.014,0.031L368.372,205.957z"/>
		<path style="fill:#1E000E;" d="M290.216,189.473c0.001,0.031,0.003,0.111-0.002,0.141l0.004-0.034l0.001,0.034
			c-0.001-0.031,0.008-0.108,0.013-0.139l-0.009,0.033L290.216,189.473z"/>
	</g>
</g>
</svg>
